<?xml version="1.0" encoding="utf-8"?>
<!-- Generator: Adobe Illustrator 19.2.1, SVG Export Plug-In . SVG Version: 6.00 Build 0)  -->
<svg version="1.1"
	 id="svg2" inkscape:export-filename="/home/mvb/tmp/git/lab/Android/My_icons/MVB_logo/mvb_logo_512.png" inkscape:export-xdpi="80" inkscape:export-ydpi="80" inkscape:version="0.91 r13725" sodipodi:docname="TicketInfoB.svg" xmlns:cc="http://creativecommons.org/ns#" xmlns:dc="http://purl.org/dc/elements/1.1/" xmlns:inkscape="http://www.inkscape.org/namespaces/inkscape" xmlns:rdf="http://www.w3.org/1999/02/22-rdf-syntax-ns#" xmlns:sodipodi="http://sodipodi.sourceforge.net/DTD/sodipodi-0.dtd" xmlns:svg="http://www.w3.org/2000/svg"
	 xmlns="http://www.w3.org/2000/svg" xmlns:xlink="http://www.w3.org/1999/xlink" x="0px" y="0px" viewBox="0 0 576 576"
	 style="enable-background:new 0 0 576 576;" xml:space="preserve">
<style type="text/css">
	.st0{fill:#FFFFFF;}
	.st1{fill:#1A87AF;stroke:#000000;stroke-width:0.3146;}
	.st2{font-family:'MyriadPro-Regular';}
	.st3{font-size:144px;}
	.st4{fill:#C63337;stroke:#000000;stroke-width:0.3362;}
	.st5{enable-background:new    ;}
	.st6{fill:#00FF00;}
	.st7{display:none;}
	.st8{display:inline;fill-opacity:0;stroke:#000000;stroke-width:0.9978;}
	.st9{display:inline;fill-opacity:0;stroke:#000000;stroke-width:0.3118;stroke-miterlimit:10;}
</style>
<sodipodi:namedview  bordercolor="#666666" borderopacity="1.0" id="base" inkscape:current-layer="layer1" inkscape:cx="-62.529743" inkscape:cy="374.30643" inkscape:document-units="px" inkscape:guide-bbox="true" inkscape:pageopacity="0.0" inkscape:pageshadow="2" inkscape:window-height="969" inkscape:window-maximized="0" inkscape:window-width="1454" inkscape:window-x="73" inkscape:window-y="0" inkscape:zoom="0.7071068" pagecolor="#ffffff" showgrid="false" showguides="true">
	<sodipodi:guide  id="guide2985" orientation="1,0" position="552,574.7768"></sodipodi:guide>
	<sodipodi:guide  id="guide2987" orientation="1,0" position="24,307.08637"></sodipodi:guide>
	<sodipodi:guide  id="guide2989" orientation="0,1" position="16.162441,24"></sodipodi:guide>
	<sodipodi:guide  id="guide2991" orientation="0,1" position="78.791899,552"></sodipodi:guide>
	<sodipodi:guide  id="guide3793" orientation="0,1" position="243.24473,284.25692"></sodipodi:guide>
	<sodipodi:guide  id="guide3795" orientation="1,0" position="288,301.93459"></sodipodi:guide>
</sodipodi:namedview>
<g id="flowRoot3785">
</g>
<path class="st0" d="M504.9,176.3h-29.8v-46.8c0-14.8-12.6-26.8-28-26.8H71.5c-15.4,0-28,12-28,26.8v238.1c0,14.8,12.6,26.8,28,26.8
	H100v47c0,14.6,12,26.5,26.8,26.5H505c14.8,0,26.8-11.9,26.8-26.5V202.9C531.7,188.2,519.7,176.3,504.9,176.3z"/>
<path id="rect4163" class="st1" d="M126.7,191.9h378.2c5.9,0,10.8,4.7,10.8,10.5V441c0,5.8-4.8,10.5-10.8,10.5H126.7
	c-5.9,0-10.8-4.7-10.8-10.5V202.4C115.9,196.6,120.8,191.9,126.7,191.9z"/>
<text transform="matrix(1 0 0 1 117.9127 233.7431)" class="st0 st2 st3">M</text>
<text transform="matrix(1 0 0 1 332.125 252.7431)" class="st0 st2 st3">B</text>
<path id="rect4161" class="st4" d="M71.4,118.4h375.7c6.6,0,12,4.8,12,10.8v238.1c0,6-5.4,10.8-12,10.8H71.4c-6.6,0-12-4.8-12-10.8
	V129.1C59.4,123.2,64.8,118.4,71.4,118.4z"/>
<g class="st5">
	<path class="st0" d="M91.5,277.6v-98.2h77.1V191h-63v30.1h59v11.5h-59V266h65.5v11.6H91.5z"/>
</g>
<g class="st5">
	<path class="st6" d="M340.1,411.2v83.4H317V277.2c0-17.3,2-30.9,5.9-40.7s10.6-17.9,20.2-24.3c9.5-6.4,20.1-9.6,31.8-9.6
		c17.3,0,30.3,5.9,39.2,17.8c8.9,11.8,13.3,24.8,13.3,38.8c0,13.7-3.6,24.8-10.8,33.2c-7.2,8.4-15.4,13.6-24.7,15.5
		c14.9,1.7,26.5,8.2,34.6,19.2c8.1,11.1,12.2,24.7,12.2,40.9c0,17.4-4.8,33-14.4,46.8s-23.4,20.7-41.5,20.7
		C364.3,435.6,350.1,427.5,340.1,411.2z M360.6,299.1c15.8,0,27.3-3.3,34.5-9.8c7.2-6.6,10.8-16,10.8-28.5c0-10-3.1-18.5-9.2-25.2
		c-6.1-6.8-13.8-10.2-23-10.2c-8,0-14.9,2.5-20.8,7.5s-9.5,10.6-10.8,16.8s-2,16.9-2,32.3v62c0,17.6,1,30.6,3.1,38.9
		s6.5,15.8,13.3,22.5s14.6,10,23.4,10c10.7,0,19.2-4.4,25.4-13.2c6.2-8.8,9.3-19.6,9.3-32.5c0-10.7-2.3-20.2-6.9-28.7
		s-10.3-14.2-17-17.2s-15.7-4.5-26.9-4.5h-3.3v-20.2H360.6z"/>
</g>
<g id="layer2" inkscape:groupmode="layer" inkscape:label="new_grid" class="st7">
	<path id="rect3070" class="st8" d="M108.5,24.5h359.1c6.6,0,12,5.4,12,12v503c0,6.6-5.4,12-12,12H108.5c-6.6,0-12-5.4-12-12v-503
		C96.5,29.9,101.9,24.5,108.5,24.5z"/>
	<path id="rect3840" class="st8" d="M36.5,96.5h503c6.6,0,12,5.4,12,12v359.1c0,6.6-5.4,12-12,12h-503c-6.6,0-12-5.4-12-12V108.5
		C24.5,101.9,29.9,96.5,36.5,96.5z"/>
	<path id="rect3842" class="st8" d="M72.5,60.5h431.1c6.6,0,12,5.4,12,12v431.1c0,6.6-5.4,12-12,12H72.5c-6.6,0-12-5.4-12-12V72.5
		C60.5,65.9,65.9,60.5,72.5,60.5z"/>
	<ellipse id="path3844" class="st9" cx="288" cy="288" rx="263.5" ry="263.5"/>
</g>
</svg>
