<?xml version="1.0" encoding="UTF-8" standalone="no"?>
<!-- Generator: Adobe Illustrator 19.2.1, SVG Export Plug-In . SVG Version: 6.00 Build 0)  -->

<svg
   xmlns:dc="http://purl.org/dc/elements/1.1/"
   xmlns:cc="http://creativecommons.org/ns#"
   xmlns:rdf="http://www.w3.org/1999/02/22-rdf-syntax-ns#"
   xmlns:svg="http://www.w3.org/2000/svg"
   xmlns="http://www.w3.org/2000/svg"
   xmlns:sodipodi="http://sodipodi.sourceforge.net/DTD/sodipodi-0.dtd"
   xmlns:inkscape="http://www.inkscape.org/namespaces/inkscape"
   version="1.1"
   id="svg2"
   inkscape:export-filename="/home/mvb/tmp/git/lab/Android/My_icons/MVB_logo/mvb_logo_512.png"
   inkscape:export-xdpi="80"
   inkscape:export-ydpi="80"
   inkscape:version="0.91 r13725"
   sodipodi:docname="ticket_info_b-9.svg"
   x="0px"
   y="0px"
   viewBox="0 0 576 576"
   style="enable-background:new 0 0 576 576;"
   xml:space="preserve"><metadata
     id="metadata36"><rdf:RDF><cc:Work
         rdf:about=""><dc:format>image/svg+xml</dc:format><dc:type
           rdf:resource="http://purl.org/dc/dcmitype/StillImage" /><dc:title></dc:title></cc:Work></rdf:RDF></metadata><defs
     id="defs34" /><style
     type="text/css"
     id="style3">
	.st0{fill:#FFFFFF;}
	.st1{fill:#1A87AF;stroke:#000000;stroke-width:0.3146;}
	.st2{font-family:'MyriadPro-Regular';}
	.st3{font-size:144px;}
	.st4{fill:#C63337;stroke:#000000;stroke-width:0.3362;}
	.st5{enable-background:new    ;}
	.st6{fill:#00FF00;}
	.st7{display:none;}
	.st8{display:inline;fill-opacity:0;stroke:#000000;stroke-width:0.9978;}
	.st9{display:inline;fill-opacity:0;stroke:#000000;stroke-width:0.3118;stroke-miterlimit:10;}
</style><sodipodi:namedview
     bordercolor="#666666"
     borderopacity="1.0"
     id="base"
     inkscape:current-layer="svg2"
     inkscape:cx="267.40944"
     inkscape:cy="261.16935"
     inkscape:document-units="px"
     inkscape:guide-bbox="true"
     inkscape:pageopacity="0.0"
     inkscape:pageshadow="2"
     inkscape:window-height="1017"
     inkscape:window-maximized="1"
     inkscape:window-width="1920"
     inkscape:window-x="0"
     inkscape:window-y="0"
     inkscape:zoom="0.7071068"
     pagecolor="#ffffff"
     showgrid="false"
     showguides="true"><sodipodi:guide
       id="guide2985"
       orientation="1,0"
       position="552,574.7768" /><sodipodi:guide
       id="guide2987"
       orientation="1,0"
       position="24,307.08637" /><sodipodi:guide
       id="guide2989"
       orientation="0,1"
       position="16.162441,24" /><sodipodi:guide
       id="guide2991"
       orientation="0,1"
       position="78.791899,552" /><sodipodi:guide
       id="guide3793"
       orientation="0,1"
       position="243.24473,284.25692" /><sodipodi:guide
       id="guide3795"
       orientation="1,0"
       position="288,301.93459" /></sodipodi:namedview><g
     id="flowRoot3785" /><path
     class="st0"
     d="M504.9,176.3h-29.8v-46.8c0-14.8-12.6-26.8-28-26.8H71.5c-15.4,0-28,12-28,26.8v238.1c0,14.8,12.6,26.8,28,26.8  H100v47c0,14.6,12,26.5,26.8,26.5H505c14.8,0,26.8-11.9,26.8-26.5V202.9C531.7,188.2,519.7,176.3,504.9,176.3z"
     id="path13" /><path
     id="rect4163"
     class="st1"
     d="M126.7,191.9h378.2c5.9,0,10.8,4.7,10.8,10.5V441c0,5.8-4.8,10.5-10.8,10.5H126.7  c-5.9,0-10.8-4.7-10.8-10.5V202.4C115.9,196.6,120.8,191.9,126.7,191.9z" /><text
     transform="matrix(1 0 0 1 117.9127 233.7431)"
     class="st0 st2 st3"
     id="text16">M</text>
<text
     transform="matrix(1 0 0 1 332.125 252.7431)"
     class="st0 st2 st3"
     id="text18">B</text>
<path
     id="rect4161"
     class="st4"
     d="M71.4,118.4h375.7c6.6,0,12,4.8,12,10.8v238.1c0,6-5.4,10.8-12,10.8H71.4c-6.6,0-12-4.8-12-10.8  V129.1C59.4,123.2,64.8,118.4,71.4,118.4z" /><g
     class="st5"
     id="g21"><path
       class="st0"
       d="M91.5,277.6v-98.2h77.1V191h-63v30.1h59v11.5h-59V266h65.5v11.6H91.5z"
       id="path23" /></g><g
     id="layer2"
     inkscape:groupmode="layer"
     inkscape:label="new_grid"
     class="st7"><path
       id="rect3070"
       class="st8"
       d="M108.5,24.5h359.1c6.6,0,12,5.4,12,12v503c0,6.6-5.4,12-12,12H108.5c-6.6,0-12-5.4-12-12v-503   C96.5,29.9,101.9,24.5,108.5,24.5z" /><path
       id="rect3840"
       class="st8"
       d="M36.5,96.5h503c6.6,0,12,5.4,12,12v359.1c0,6.6-5.4,12-12,12h-503c-6.6,0-12-5.4-12-12V108.5   C24.5,101.9,29.9,96.5,36.5,96.5z" /><path
       id="rect3842"
       class="st8"
       d="M72.5,60.5h431.1c6.6,0,12,5.4,12,12v431.1c0,6.6-5.4,12-12,12H72.5c-6.6,0-12-5.4-12-12V72.5   C60.5,65.9,65.9,60.5,72.5,60.5z" /><ellipse
       id="path3844"
       class="st9"
       cx="288"
       cy="288"
       rx="263.5"
       ry="263.5" /></g><text
     xml:space="preserve"
     style="font-style:normal;font-weight:normal;font-size:319.33584595px;line-height:125%;font-family:sans-serif;letter-spacing:0px;word-spacing:0px;fill:#c7ff00;fill-opacity:1;stroke:none;stroke-width:1px;stroke-linecap:butt;stroke-linejoin:miter;stroke-opacity:1"
     x="303.3432"
     y="493.24826"
     id="text4164"
     sodipodi:linespacing="125%"
     transform="scale(1.0135171,0.98666318)"><tspan
       sodipodi:role="line"
       id="tspan4166"
       x="303.3432"
       y="493.24826">α</tspan></text>
</svg>